<?xml version="1.0" encoding="UTF-8"?><svg id="Layer_3" xmlns="http://www.w3.org/2000/svg" viewBox="0 0 431.03 105.3"><defs><style>.cls-1{fill:#fff;}</style></defs><path class="cls-1" d="M354.04,73.47c-1.53,0-3.06-.5-4.34-1.49l-7.76-6.02c-5.84-4.53-9.33-11.65-9.33-19.04v-15.85c0-1.7,1.4-3.1,3.1-3.12l2.36-.02c7.07-.05,10.34-2.28,11.66-3.6,.39-.39,.77-.82,1.1-1.27,.73-.99,1.9-1.6,3.13-1.61h.12c1.26,.01,2.45,.63,3.19,1.64,.32,.43,.68,.85,1.07,1.24,.47,.45,1,.86,1.57,1.2,4.11,2.63,6.62,2.52,8.83,2.43,.43-.02,.85-.03,1.26-.03l2.36,.02c.56,0,.73,.53,1.04,1.49,4.44,13.76,23.05,20.38,55.35,19.67l.02,1c-32.78,.72-51.73-6.13-56.32-20.36-.1-.3-.2-.62-.28-.79l-2.17-.02c-.39,0-.79,.01-1.21,.03-2.25,.09-5.04,.21-9.4-2.58-.62-.37-1.22-.82-1.75-1.33-.43-.43-.82-.88-1.17-1.35-.56-.77-1.45-1.23-2.39-1.24h-.11c-.92,0-1.79,.46-2.34,1.21-.37,.49-.77,.95-1.2,1.38-1.43,1.43-4.94,3.83-12.36,3.89l-2.36,.02c-1.15,.01-2.1,.96-2.1,2.12v15.85c0,7.08,3.34,13.91,8.94,18.25l7.76,6.02c2.19,1.7,5.26,1.7,7.45,0l7.76-6.02c2.76-2.15,5.04-4.95,6.58-8.09l.9,.44c-1.61,3.28-3.99,6.2-6.87,8.44l-7.76,6.02c-1.28,.99-2.81,1.49-4.34,1.49Zm18.32-44.51h0Z"/><path class="cls-1" d="M343.98,98.78h-3.63c-3.73,0-6.92-3.11-7.41-7.22l-2.55-22.09c-.07-1-.85-1.77-1.83-1.82h-3.16c-.95,.05-1.74,.82-1.8,1.79l-2.56,22.11c-.49,4.11-3.67,7.21-7.4,7.22h-3.63c-3.9,0-8.49-5.87-10.63-9.82-.16-.23-18.41-27.13-65.27-32.68-17.42-2.06-45.48-.59-77.97,1.12C99.53,60.37,35.36,63.75,.19,50.11l.36-.93c34.98,13.56,99.03,10.19,155.54,7.22,32.54-1.71,60.63-3.19,78.14-1.11,47.35,5.6,65.83,32.88,66.01,33.15,2.46,4.55,6.71,9.34,9.77,9.34h3.63c3.22,0,5.98-2.73,6.4-6.34l2.56-22.09c.1-1.46,1.29-2.63,2.77-2.7h3.21c1.51,.07,2.7,1.24,2.8,2.72l2.55,22.06c.43,3.61,3.18,6.33,6.41,6.34h3.63c3.14,0,5.8-2.53,6.34-6.01l2.59-16.65,.99,.15-2.59,16.65c-.62,3.98-3.7,6.86-7.33,6.86Zm9.92-23.51l-.99-.15,.25-1.58,.99,.15-.25,1.58Zm-62.24-25.36c-6.67-10.97-6.09-24.77,1.48-35.15,7.54-10.02,20.23-13.17,30.86-7.65,1.87,1.01,4.09,1.01,5.95,0,7.43-3.9,16.45-3.55,23.55,.92,6.94,4.47,11.65,11.71,12.94,19.86l-.99,.16c-1.24-7.87-5.79-14.86-12.49-19.17-6.79-4.27-15.43-4.61-22.54-.88-2.15,1.16-4.73,1.16-6.89,0-10.18-5.28-22.35-2.25-29.59,7.37-7.32,10.04-7.88,23.41-1.43,34.04l-.86,.52Z"/><polygon class="cls-1" points="353.4 54.47 346.14 45.32 346.92 44.7 353.4 52.86 363.82 39.81 364.6 40.44 353.4 54.47"/></svg>