<?xml version="1.0" encoding="UTF-8"?><svg id="Layer_3" xmlns="http://www.w3.org/2000/svg" viewBox="0 0 170.66 30.1"><defs><style>.cls-1{fill:none;}.cls-2{fill:#fff;}.cls-3{fill:#d2b549;}</style></defs><rect class="cls-1" x="2.33" y="2.11" width="166" height="25.88"/><path id="Caminho_199" class="cls-2" d="M2.33,13.02v-.22h.31c.29,.03,.57-.1,.74-.33,.12-.28,.16-.59,.13-.9V6.25c.04-.33-.02-.67-.17-.97-.18-.19-.44-.29-.7-.27h-.31v-.23h3.35c.95-.05,1.91,.1,2.81,.42,.65,.29,1.19,.78,1.55,1.4,.4,.68,.6,1.47,.58,2.26,.03,1.05-.34,2.08-1.04,2.87-.95,.92-2.25,1.39-3.57,1.29H2.33Zm2.35-.6c.42,.1,.86,.16,1.29,.17,.88,.02,1.74-.34,2.34-.99,.65-.74,.98-1.7,.93-2.68,.05-.98-.28-1.95-.93-2.69-.62-.65-1.49-1.01-2.39-.98-.42,0-.84,.07-1.24,.18v7h0Z"/><path id="Caminho_200" class="cls-2" d="M15.43,5.24v3.25h1.81c.33,.04,.66-.04,.94-.21,.24-.27,.37-.62,.35-.98h.22v2.86h-.22c-.02-.26-.08-.52-.17-.77-.08-.15-.21-.27-.36-.33-.24-.09-.5-.14-.76-.12h-1.81v2.71c-.01,.22,0,.45,.05,.66,.03,.08,.09,.15,.17,.19,.15,.06,.3,.08,.46,.07h1.4c.34,.01,.68-.02,1.01-.1,.23-.08,.44-.21,.61-.38,.31-.34,.57-.72,.77-1.14h.24l-.71,2.06h-6.35v-.23h.29c.19,0,.38-.05,.55-.14,.12-.06,.22-.16,.26-.29,.06-.26,.08-.53,.07-.8V6.22c.04-.33-.02-.66-.16-.97-.2-.18-.46-.27-.73-.24h-.29v-.22h6.34l.09,1.8h-.24c-.04-.31-.14-.61-.28-.89-.11-.17-.27-.3-.46-.37-.28-.07-.57-.11-.86-.09h-2.26Z"/><path id="Caminho_201" class="cls-2" d="M22,4.79h2.23l5.03,6.17V6.22c.04-.33-.02-.66-.17-.95-.19-.18-.45-.28-.71-.26h-.29v-.22h2.86v.23h-.29c-.28-.03-.56,.09-.74,.32-.12,.28-.16,.58-.13,.89v6.94h-.22l-5.43-6.63v5.07c-.04,.32,.02,.65,.16,.95,.19,.18,.45,.28,.71,.25h.29v.22h-2.86v-.22h.29c.29,.03,.57-.09,.75-.32,.12-.28,.16-.58,.13-.89V5.87c-.16-.2-.34-.39-.54-.55-.17-.11-.35-.19-.54-.25-.17-.04-.35-.06-.53-.05v-.22Z"/><path id="Caminho_202" class="cls-2" d="M40.08,4.79l.09,1.93h-.23c-.02-.25-.08-.5-.18-.73-.11-.22-.28-.4-.5-.52-.26-.12-.54-.18-.82-.17h-1.16v6.29c-.04,.32,.02,.65,.16,.95,.19,.18,.45,.28,.71,.25h.29v.23h-3.49v-.22h.29c.28,.03,.56-.09,.74-.32,.12-.28,.16-.58,.13-.89V5.31h-.99c-.28-.01-.55,.02-.82,.09-.22,.09-.41,.24-.54,.44-.16,.27-.26,.57-.27,.89h-.23l.1-1.93h6.72Z"/><path id="Caminho_203" class="cls-2" d="M47.91,10.26h-3.19l-.56,1.3c-.11,.22-.18,.47-.21,.72,0,.13,.07,.26,.18,.33,.24,.13,.5,.19,.77,.19v.23h-2.59v-.23c.24-.02,.47-.1,.67-.24,.3-.35,.53-.75,.68-1.18l2.9-6.77h.21l2.86,6.85c.14,.4,.35,.76,.63,1.07,.22,.18,.5,.27,.79,.28v.23h-3.25v-.23c.23,.01,.46-.05,.66-.16,.11-.08,.17-.21,.17-.34-.03-.29-.11-.58-.24-.84l-.5-1.18Zm-.17-.45l-1.4-3.33-1.43,3.32h2.83Zm.3-7.7l-1.79,2.09h-.21l.64-2.1h1.36Z"/><path id="Caminho_204" class="cls-2" d="M61.34,13.02h-2.2l-2.79-3.85c-.21,0-.37,.01-.5,.01h-.17c-.06,0-.12,0-.19,0v2.39c-.04,.33,.02,.67,.17,.97,.18,.19,.43,.29,.69,.27h.32v.23h-3.53v-.23h.31c.29,.03,.57-.1,.75-.34,.11-.28,.16-.59,.13-.89V6.25c.04-.33-.02-.67-.17-.97-.18-.19-.44-.29-.7-.27h-.31v-.22h3c.65-.02,1.3,.04,1.93,.19,.41,.13,.78,.37,1.06,.7,.29,.34,.44,.78,.43,1.22,0,.49-.17,.96-.49,1.32-.41,.42-.95,.69-1.53,.79l1.7,2.36c.27,.42,.61,.78,1,1.08,.33,.2,.71,.31,1.09,.34v.23h0Zm-5.84-4.23h.34c.63,.05,1.26-.13,1.77-.51,.39-.32,.61-.8,.6-1.3,.02-.47-.16-.92-.48-1.25-.34-.33-.8-.5-1.28-.48-.32,0-.64,.05-.95,.12v3.43Z"/><path id="Caminho_205" class="cls-2" d="M66.8,12.79v.23h-3.53v-.23h.29c.28,.02,.56-.09,.74-.3,.13-.29,.18-.62,.15-.93V6.25c.02-.28-.01-.56-.08-.82-.05-.11-.14-.2-.25-.26-.17-.1-.36-.15-.56-.15h-.29v-.22h3.53v.22h-.3c-.28-.02-.55,.09-.73,.3-.13,.29-.19,.62-.15,.94v5.32c-.02,.28,.01,.56,.08,.83,.05,.11,.14,.21,.26,.26,.17,.1,.36,.15,.55,.15h.3Z"/><path id="Caminho_206" class="cls-2" d="M74.54,10.26h-3.19l-.56,1.3c-.11,.22-.18,.47-.21,.72,0,.13,.07,.26,.18,.33,.24,.13,.5,.19,.77,.18v.23h-2.59v-.23c.24-.02,.47-.1,.67-.24,.3-.35,.53-.75,.69-1.18l2.9-6.77h.21l2.86,6.85c.14,.4,.35,.76,.63,1.07,.22,.18,.5,.27,.79,.28v.23h-3.25v-.23c.23,.01,.46-.05,.67-.16,.11-.08,.17-.21,.17-.34-.03-.29-.11-.58-.24-.84l-.5-1.18Zm-.17-.45l-1.4-3.33-1.43,3.33h2.83Z"/><path id="Caminho_207" class="cls-2" d="M85.26,4.6v2.85h-.23c-.04-.46-.18-.9-.39-1.31-.19-.33-.47-.59-.8-.77-.33-.19-.7-.28-1.08-.28-.39-.01-.76,.12-1.04,.39-.26,.22-.41,.54-.41,.88,0,.25,.09,.5,.26,.69,.53,.5,1.13,.91,1.79,1.21,.55,.28,1.07,.59,1.58,.95,.27,.21,.49,.47,.65,.78,.15,.29,.23,.61,.23,.94,0,.62-.26,1.2-.73,1.61-.51,.46-1.18,.7-1.87,.68-.23,0-.45-.01-.68-.05-.26-.06-.52-.13-.78-.22-.24-.09-.49-.16-.75-.19-.09,0-.18,.03-.24,.09-.08,.11-.12,.24-.13,.38h-.22v-2.83h.22c.06,.46,.21,.91,.42,1.33,.2,.31,.48,.57,.82,.73,.37,.19,.78,.29,1.2,.29,.44,.03,.87-.12,1.2-.4,.28-.24,.44-.58,.44-.95,0-.21-.06-.43-.17-.61-.13-.23-.31-.42-.52-.58-.16-.12-.59-.38-1.29-.77-.52-.28-1.02-.59-1.5-.94-.28-.21-.51-.47-.68-.78-.15-.29-.23-.61-.23-.94,0-.58,.24-1.14,.68-1.53,.47-.43,1.09-.66,1.73-.64,.48,0,.95,.12,1.39,.32,.15,.08,.31,.13,.48,.15,.1,0,.19-.03,.26-.09,.09-.11,.14-.24,.16-.38h.22Z"/><path id="Caminho_208" class="cls-2" d="M101.67,4.79v.23c-.24,.03-.47,.13-.66,.28-.25,.26-.45,.57-.57,.91l-2.87,7h-.22l-3.08-7.1c-.09-.23-.2-.46-.33-.67-.1-.12-.23-.23-.37-.29-.19-.08-.39-.13-.6-.14v-.23h3.36v.23c-.26,0-.51,.07-.74,.19-.11,.09-.17,.22-.17,.36,.04,.33,.13,.65,.28,.95l2.09,4.83,1.94-4.76c.15-.31,.24-.64,.29-.98,0-.13-.07-.26-.18-.34-.17-.13-.38-.21-.6-.23l-.1-.02v-.23h2.54Z"/><rect id="Ret창ngulo_162" class="cls-2" x="102.92" y="9.77" width="3.14" height=".92"/><path id="Caminho_209" class="cls-3" d="M110.85,9.17v2.4c-.04,.33,.02,.67,.17,.97,.18,.19,.44,.29,.7,.27h.32v.22h-3.53v-.22h.31c.29,.03,.58-.1,.75-.34,.11-.28,.15-.59,.12-.89V6.25c.04-.33-.02-.67-.16-.97-.18-.19-.44-.29-.7-.27h-.31v-.23h3.02c.59-.02,1.18,.06,1.74,.23,.42,.15,.79,.42,1.07,.77,.29,.36,.45,.82,.44,1.28,.02,.62-.22,1.21-.67,1.64-.52,.45-1.19,.67-1.88,.63-.22,0-.43-.02-.64-.04-.23-.03-.48-.07-.74-.13m0-.35c.21,.04,.4,.07,.57,.09,.14,.02,.28,.03,.42,.03,.42,0,.81-.18,1.09-.49,.31-.35,.48-.8,.46-1.27,0-.34-.07-.68-.22-.99-.13-.29-.35-.53-.62-.69-.28-.15-.59-.23-.91-.23-.27,0-.54,.05-.8,.11v3.42h0Z"/><path id="Caminho_210" class="cls-2" d="M125.35,13.02h-2.2l-2.79-3.85c-.21,0-.37,.01-.5,.01h-.17c-.06,0-.12,0-.19,0v2.39c-.04,.33,.02,.67,.17,.97,.18,.19,.43,.29,.69,.27h.32v.23h-3.53v-.23h.31c.29,.03,.58-.1,.75-.34,.11-.28,.16-.59,.13-.89V6.25c.04-.33-.02-.67-.17-.97-.18-.19-.44-.29-.7-.27h-.31v-.22h3c.65-.03,1.3,.04,1.93,.19,.41,.13,.78,.37,1.06,.7,.29,.34,.44,.78,.43,1.22,0,.49-.17,.96-.49,1.32-.42,.42-.95,.69-1.53,.79l1.7,2.36c.27,.42,.61,.78,1,1.08,.33,.2,.71,.31,1.09,.34v.23h0Zm-5.84-4.23h.34c.63,.05,1.26-.13,1.78-.51,.39-.32,.61-.8,.6-1.3,.02-.47-.16-.92-.48-1.25-.34-.33-.8-.5-1.28-.48-.32,0-.64,.05-.95,.12v3.42h0Z"/><path id="Caminho_211" class="cls-2" d="M131.53,4.6c1.06,0,2.07,.44,2.78,1.22,.78,.81,1.21,1.91,1.17,3.04,.04,1.15-.39,2.28-1.18,3.11-1.5,1.59-4,1.66-5.59,.16-.04-.04-.09-.08-.13-.13-.79-.85-1.2-1.97-1.16-3.13-.04-1.21,.45-2.38,1.34-3.2,.75-.71,1.74-1.09,2.77-1.07m-.12,.44c-.69-.02-1.34,.28-1.77,.82-.61,.87-.91,1.92-.83,2.99-.07,1.1,.23,2.19,.86,3.1,.42,.54,1.07,.85,1.75,.83,.74,.01,1.45-.32,1.91-.9,.57-.84,.84-1.84,.76-2.85,.08-1.11-.21-2.22-.83-3.15-.45-.55-1.13-.86-1.85-.82"/><path id="Caminho_212" class="cls-2" d="M142.79,13.02l-3.18-6.93v5.5c-.04,.32,.02,.65,.16,.95,.19,.18,.45,.28,.71,.25h.29v.23h-2.86v-.23h.29c.28,.03,.56-.09,.74-.32,.12-.28,.16-.58,.13-.89V6.22c.02-.27-.03-.54-.12-.79-.07-.13-.18-.23-.31-.29-.23-.09-.48-.13-.73-.12v-.22h2.33l2.99,6.44,2.94-6.44h2.33v.23h-.28c-.29-.03-.57,.09-.75,.32-.12,.28-.16,.58-.13,.89v5.38c-.04,.33,.02,.66,.17,.95,.19,.18,.45,.28,.71,.25h.28v.22h-3.5v-.22h.29c.28,.03,.56-.09,.74-.32,.12-.28,.16-.58,.13-.89V6.09l-3.17,6.93h-.19Z"/><path id="Caminho_213" class="cls-2" d="M153.09,5.24v3.25h1.81c.33,.04,.66-.04,.94-.21,.24-.27,.37-.62,.35-.98h.22v2.86h-.22c-.02-.26-.08-.52-.17-.77-.08-.15-.21-.27-.36-.33-.24-.09-.5-.14-.77-.12h-1.81v2.71c-.01,.22,0,.45,.05,.66,.03,.08,.09,.15,.17,.19,.15,.06,.3,.08,.46,.07h1.4c.34,.01,.68-.02,1.01-.1,.23-.08,.44-.21,.61-.38,.31-.34,.57-.72,.77-1.14h.24l-.71,2.06h-6.34v-.23h.29c.19,0,.38-.05,.55-.14,.12-.06,.22-.16,.26-.29,.06-.26,.08-.53,.07-.8V6.22c.04-.33-.02-.66-.16-.97-.2-.18-.46-.27-.73-.24h-.29v-.22h6.34l.09,1.8h-.24c-.04-.31-.14-.61-.28-.89-.11-.17-.27-.3-.46-.37-.28-.08-.57-.11-.86-.09h-2.26Z"/><path id="Caminho_214" class="cls-2" d="M160.04,13.02v-.22h.31c.29,.03,.57-.1,.74-.33,.12-.28,.16-.59,.13-.9V6.25c.04-.33-.02-.67-.17-.97-.18-.19-.44-.29-.7-.27h-.31v-.23h3.35c.95-.05,1.91,.1,2.81,.42,.65,.29,1.19,.78,1.55,1.4,.4,.68,.6,1.47,.59,2.26,.03,1.06-.34,2.08-1.04,2.87-.95,.92-2.25,1.39-3.57,1.29h-3.68Zm2.35-.6c.42,.1,.86,.16,1.29,.17,.89,.02,1.74-.34,2.34-.99,.65-.74,.98-1.7,.93-2.68,.05-.98-.28-1.95-.93-2.69-.62-.65-1.49-1.01-2.39-.98-.42,0-.84,.07-1.24,.18v7Z"/><path id="Caminho_215" class="cls-2" d="M94.63,26.62c-.25,.25-.56,.44-.89,.56-.31,.11-.64,.17-.98,.18-.49,.02-.97-.16-1.33-.5-.34-.34-.53-.81-.51-1.29,0-.47,.16-.93,.47-1.29,.34-.38,.84-.59,1.36-.55,.4-.02,.79,.08,1.13,.3,.22,.13,.38,.35,.43,.61,0,.1,.04,.19,.1,.26,.13,.12,.33,.12,.45-.01,.06-.08,.09-.19,.09-.29v-.96c0-.11-.02-.21-.09-.29-.12-.13-.33-.13-.46,0h0c-.05,.07-.08,.14-.08,.23-.45-.32-.99-.48-1.54-.47-1.33-.04-2.45,1.02-2.48,2.35,0,.04,0,.09,0,.13-.02,.65,.23,1.28,.69,1.74,.47,.46,1.1,.71,1.76,.68,.67,0,1.33-.19,1.89-.56,.38-.25,.56-.45,.56-.64,0-.08-.03-.16-.09-.22-.11-.12-.29-.14-.48,.04"/><path id="Caminho_216" class="cls-2" d="M109.02,27.19h-1.57v-5.92h-1.75c-.11,0-.21,.02-.29,.09-.13,.12-.14,.32-.02,.44l.02,.02c.08,.06,.19,.1,.29,.09h1.12v5.29h-1.57c-.1,0-.2,.02-.29,.08-.07,.06-.1,.14-.1,.23,0,.09,.04,.17,.1,.23,.08,.07,.18,.1,.29,.09h3.76c.11,0,.21-.02,.29-.09,.06-.06,.1-.14,.1-.23,0-.09-.03-.17-.1-.23-.08-.06-.19-.09-.29-.08"/><path id="Caminho_217" class="cls-2" d="M123.54,27.19h-1.57v-3.96h-1.77c-.11,0-.21,.02-.29,.09-.07,.06-.1,.14-.1,.23,0,.09,.03,.17,.1,.23,.08,.06,.19,.09,.29,.09h1.14v3.32h-1.57c-.1,0-.21,.02-.29,.08-.13,.12-.13,.32-.02,.44l.02,.02c.08,.07,.18,.1,.29,.09h3.76c.11,0,.21-.02,.29-.09,.06-.06,.1-.14,.1-.23,0-.09-.03-.17-.1-.23-.08-.06-.19-.09-.29-.08"/><rect id="Ret창ngulo_163" class="cls-2" x="121.12" y="21.05" width=".83" height="1.3"/><path id="Caminho_218" class="cls-2" d="M138.38,27.19h-.26v-2.57c0-.28-.09-.55-.25-.78-.14-.22-.33-.41-.55-.54-.29-.15-.61-.22-.93-.22-.29,0-.59,.06-.85,.18-.24,.12-.46,.28-.66,.47v-.5h-.89c-.1,0-.21,.02-.29,.09-.06,.06-.1,.14-.1,.23,0,.09,.03,.17,.1,.23,.08,.06,.18,.1,.29,.09h.26v3.32h-.38c-.1,0-.21,.02-.29,.08-.13,.12-.13,.32-.02,.44l.02,.02c.08,.07,.18,.1,.29,.09h1.39c.1,0,.21-.02,.29-.09,.06-.06,.1-.14,.1-.23,0-.09-.03-.17-.1-.23-.08-.06-.18-.09-.29-.08h-.38v-2.53c.23-.3,.51-.57,.83-.79,.21-.11,.44-.16,.68-.16,.3-.02,.59,.09,.81,.28,.2,.17,.3,.43,.3,.69v2.5h-.25c-.1,0-.21,.02-.29,.08-.13,.12-.13,.32-.02,.44l.02,.02c.08,.07,.19,.1,.29,.09h1.14c.1,0,.21-.02,.29-.09,.06-.06,.1-.14,.1-.23,0-.09-.03-.17-.1-.23-.08-.06-.18-.09-.29-.08"/><rect id="Ret창ngulo_164" class="cls-2" x="150.13" y="21.05" width=".83" height="1.3"/><path id="Caminho_219" class="cls-2" d="M152.54,27.19h-1.57v-3.96h-1.77c-.11,0-.21,.02-.29,.09-.07,.06-.1,.14-.1,.23,0,.09,.03,.17,.1,.23,.08,.06,.19,.09,.29,.09h1.14v3.32h-1.57c-.1,0-.2,.02-.29,.08-.07,.06-.1,.14-.1,.23,0,.09,.04,.17,.1,.23,.08,.07,.18,.1,.29,.09h3.76c.11,0,.21-.02,.29-.09,.06-.06,.1-.14,.1-.23,0-.09-.03-.17-.1-.23-.08-.06-.19-.09-.29-.08"/><path id="Caminho_220" class="cls-2" d="M167.62,26.58c-.11-.11-.29-.14-.48,.04-.25,.25-.56,.44-.89,.56-.31,.11-.64,.17-.97,.18-.49,.02-.97-.16-1.33-.51-.34-.34-.52-.81-.51-1.29,0-.47,.16-.93,.47-1.29,.34-.38,.84-.59,1.36-.55,.4-.02,.79,.08,1.13,.3,.22,.13,.38,.35,.43,.61,0,.1,.04,.19,.1,.26,.13,.12,.33,.12,.45-.01,.06-.08,.09-.19,.09-.29v-.96c0-.11-.02-.21-.09-.29-.12-.13-.33-.13-.45,0h0c-.05,.07-.08,.15-.09,.23-.45-.32-.99-.48-1.54-.47-1.33-.04-2.45,1.02-2.48,2.35,0,.04,0,.09,0,.13-.02,.65,.23,1.28,.69,1.74,.47,.46,1.1,.71,1.76,.69,.67,0,1.33-.19,1.89-.56,.38-.25,.56-.45,.56-.64,0-.08-.03-.16-.09-.22"/><rect id="Ret창ngulo_165" class="cls-2" x="2.33" y="27.16" width="83.35" height=".83"/></svg>