<?xml version="1.0" encoding="UTF-8"?><svg id="Layer_3" xmlns="http://www.w3.org/2000/svg" viewBox="0 0 1809.38 107.76"><defs><style>.cls-1{fill:#fff;}</style></defs><path class="cls-1" d="M1922.83,44.57c-371.56,13.34-643.66,14.74-808.76,4.17-117.43-7.52-140.49-18.98-144.76-22.32-.25-.2-.4-.31-.62-.31l-2.36-.02c-.41,0-.83,.01-1.26,.03-.83,.03-1.7,.07-2.68-.04l.37-.06c-1.29-8.15-6-15.39-12.94-19.86-7.1-4.47-16.12-4.82-23.55-.92-1.86,1.01-4.09,1.01-5.95,0-10.63-5.51-23.32-2.37-30.86,7.65-7.57,10.38-8.15,24.18-1.48,35.15l.86-.52c-6.46-10.63-5.9-23.99,1.43-34.04,7.24-9.62,19.41-12.65,29.59-7.37,2.16,1.17,4.74,1.17,6.89,0,7.11-3.73,15.75-3.4,22.54,.88,6.64,4.28,11.17,11.19,12.45,18.99-1.5-.25-3.26-.87-5.5-2.3-.57-.34-1.1-.75-1.57-1.2-.39-.39-.75-.81-1.07-1.24-.74-1.01-1.93-1.63-3.19-1.64h-.12c-1.24,.01-2.41,.62-3.14,1.61-.34,.45-.71,.87-1.1,1.27-1.32,1.32-4.59,3.54-11.66,3.6l-2.36,.02c-1.7,.02-3.09,1.41-3.1,3.12v15.85c0,7.5,3.4,14.44,9.33,19.04l7.76,6.02c1.28,.99,2.81,1.49,4.34,1.49s3.06-.5,4.34-1.49l7.76-6.02c2.88-2.24,5.26-5.16,6.87-8.44l-.9-.44c-1.54,3.14-3.82,5.94-6.58,8.09l-7.76,6.02c-2.19,1.7-5.26,1.7-7.45,0l-7.76-6.02c-5.68-4.41-8.94-11.06-8.94-18.25v-15.85c0-1.16,.95-2.11,2.1-2.12l2.36-.02c7.42-.05,10.93-2.46,12.36-3.89,.43-.43,.83-.89,1.2-1.38,.55-.75,1.42-1.2,2.34-1.21h.11c.94,0,1.83,.47,2.39,1.24,.35,.47,.75,.93,1.17,1.35,.53,.51,1.12,.96,1.75,1.33,4.36,2.79,7.15,2.67,9.39,2.58,.42-.02,.81-.04,1.21-.03l2.24,.02s.08,.06,.13,.1c5.55,4.33,30.81,15.19,145.32,22.53,165.13,10.58,437.27,9.18,808.86-4.16l-.04-1Z"/><rect class="cls-1" x="949.05" y="72.04" width="1.59" height="1" transform="translate(731.65 999.83) rotate(-81.13)"/><path class="cls-1" d="M946.64,89.91c-.54,3.49-3.21,6.01-6.34,6.01h-3.63c-3.23,0-5.99-2.73-6.41-6.34l-2.55-22.06c-.1-1.48-1.29-2.65-2.8-2.73h-3.21c-1.48,.08-2.67,1.25-2.77,2.7l-2.56,22.09c-.43,3.61-3.18,6.33-6.4,6.34h-3.63c-3.07,0-7.31-4.79-9.77-9.34-.18-.27-18.65-27.54-66.01-33.15-1.76-.21-3.73-.45-5.91-.72-27.95-3.42-93.41-11.42-221.9-12.01C442.73,39.98,239.91,50.79-.05,72.83l.09,1c239.92-22.05,442.69-32.85,602.69-32.12,128.42,.59,193.84,8.59,221.78,12,2.18,.27,4.15,.51,5.92,.72,37.5,4.44,59.1,23.34,65.27,32.67,2.14,3.95,6.73,9.82,10.63,9.82h3.63c3.73,0,6.91-3.11,7.4-7.22l2.56-22.11c.07-.97,.85-1.75,1.8-1.79h3.16c.97,.05,1.76,.82,1.83,1.82l2.55,22.09c.49,4.11,3.67,7.22,7.41,7.22h3.63c3.63,0,6.72-2.88,7.33-6.86l2.59-16.65-.99-.15-2.59,16.65Z"/><polygon class="cls-1" points="943.24 42.85 942.46 43.47 949.72 52.61 960.92 38.58 960.14 37.96 949.72 51 943.24 42.85"/></svg>